<?xml version="1.0" encoding="UTF-8"?><!DOCTYPE svg PUBLIC "-//W3C//DTD SVG 1.1//EN" "http://www.w3.org/Graphics/SVG/1.1/DTD/svg11.dtd"><svg xmlns="http://www.w3.org/2000/svg" xmlns:xlink="http://www.w3.org/1999/xlink"><defs/><symbol id="active-ingredient"><g fill="none" fill-rule="evenodd" stroke-width=".92" stroke="#036"><path fill="#E0EEFF" d="M23.199 16.717l-1.482-2.567-9.46 5.461 1.482 2.568 9.46-5.462zm-8.448 4.886l8.171 16.66 9.404-5.43-10.342-15.406-7.233 4.176z"/><path fill="#E0EEFF" d="M33.656 34.628c-3.425-1.978-4.537-6.465-2.483-10.022 1.37-2.372 5.735-5.16 13.098-8.364.906 7.978.674 13.153-.695 15.525-2.054 3.557-6.496 4.838-9.92 2.86z"/><path stroke-linecap="square" d="M33.655 34.628l6.418-11.116m-1.279 2.987l2.014.01m-4.451 2.787l-.86-2.415"/><path fill="#E0EEFF" d="M13.473 31.784l2.057 11.631h31.603l2.158-11.63H13.473zm5.149 11.694v3.261h25.526v-3.261H18.622z"/><path stroke-linecap="square" d="M14.492 36.4h4.66m-3.819 2.37h9.026"/></g></symbol><symbol id="administration-form"><g fill="none" fill-rule="evenodd" stroke="#036"><path fill="#E0EEFF" stroke-width=".92" d="M18.008 51.348c1.53 0 2.77-1.303 2.77-2.91 0-1.072-.923-2.87-2.77-5.397-1.846 2.526-2.769 4.325-2.769 5.397 0 1.607 1.24 2.91 2.77 2.91z"/><g stroke-width=".96"><path fill="#E0EEFF" d="M36.422 14.767l-16.57 16.57-2.197 6.894 1.7 1.7 6.882-2.192 16.578-16.578-6.393-6.394z"/><path fill="#FFF" d="M32.908 22.29L22.082 33.063l-1.11 3.484 3.47-1.124L37.27 22.595l-4.362-.305zM20.915 36.727l-.08.25-.023.024-.222-.071-.071-.219.025-.025.249-.08.122.121z"/><g fill="#E0EEFF"><path d="M41.74 17.932l4.23-4.23a1.368 1.368 0 00-1.934-1.935l-4.23 4.23 1.934 1.935z"/><path d="M36.124 11.694l9.765 9.766-2.588 2.588-9.765-9.766z"/></g></g></g></symbol><symbol id="anchor-link"><g id="00-icons/anchor-link" stroke="none" stroke-width="1" fill="none" fill-rule="evenodd"><path d="M17.426 12.277c.84-.849 2.166.446 1.282 1.294l-6.054 6.161c-.398.357-.928.357-1.282 0l-6.099-6.16c-.84-.849.442-2.144 1.326-1.295l5.392 5.49 5.435-5.49zm0-7c.84-.849 2.166.446 1.282 1.294l-6.054 6.161c-.398.357-.928.357-1.282 0l-6.099-6.16c-.84-.849.442-2.144 1.326-1.295l5.392 5.49 5.435-5.49z" id="anchor-link" fill="currentColor" fill-rule="nonzero"/></g></symbol><symbol id="arrow-back"><g id="00-icons/arrow-back" stroke="none" stroke-width="1" fill="none" fill-rule="evenodd"><path d="M15.723 17.426c.849.84-.446 2.166-1.294 1.282l-6.161-6.054c-.357-.398-.357-.928 0-1.282l6.16-6.099c.849-.84 2.144.442 1.295 1.326l-5.49 5.392 5.49 5.435z" id="arrow-back" fill="currentColor" fill-rule="nonzero"/></g></symbol><symbol id="arrow-down"><g id="00-icons/arrow-down" stroke="none" stroke-width="1" fill="none" fill-rule="evenodd"><path d="M17.426 8.277c.84-.849 2.166.446 1.282 1.294l-6.054 6.161c-.398.357-.928.357-1.282 0l-6.099-6.16c-.84-.849.442-2.144 1.326-1.295l5.392 5.49 5.435-5.49z" id="arrow-down" fill="currentColor" fill-rule="nonzero"/></g></symbol><symbol id="arrow-forward"><g id="00-icons/arrow-forward" stroke="none" stroke-width="1" fill="none" fill-rule="evenodd"><path d="M8.277 17.426l5.49-5.435-5.49-5.392c-.849-.884.446-2.165 1.294-1.326l6.161 6.099c.357.354.357.884 0 1.282l-6.16 6.054c-.849.884-2.144-.442-1.295-1.282z" id="arrow-forward" fill="currentColor" fill-rule="nonzero"/></g></symbol><symbol id="arrow-up"><g id="00-icons/arrow-up" stroke="none" stroke-width="1" fill="none" fill-rule="evenodd"><path d="M17.426 15.723l-5.435-5.49-5.392 5.49c-.884.849-2.165-.446-1.326-1.294l6.099-6.161c.354-.357.884-.357 1.282 0l6.054 6.16c.884.849-.442 2.144-1.282 1.295z" id="arrow-up" fill="currentColor" fill-rule="nonzero"/></g></symbol><symbol id="attention"><g id="00-icons/attention" stroke="none" stroke-width="1" fill="none" fill-rule="evenodd"><path d="M3 19.801c0-.189.043-.383.136-.568l7.881-15.606a1.084 1.084 0 011.966 0l7.881 15.606c.094.185.136.38.136.568 0 .627-.469 1.2-1.12 1.2H4.12C3.47 21 3 20.427 3 19.8zm2.17-.6h13.66L12 5.674 5.168 19.2zM13 11v3a1 1 0 01-2 0v-3a1 1 0 012 0zm.077 6a1 1 0 11-2 0 1 1 0 012 0z" id="attention" fill="currentColor" fill-rule="nonzero"/></g></symbol><symbol id="back-to-top"><path fill="currentColor" d="M13.55 7.897l.009 11.554c0 .594-.48 1.075-1.074 1.074a1.077 1.077 0 01-1.076-1.076L11.4 7.884l-4.726 4.814c-.95.911-2.328-.481-1.426-1.392l6.55-6.618c.38-.383.95-.383 1.378.001l6.513 6.628c.951.913-.473 2.303-1.376 1.39l-4.762-4.81z"/></symbol><symbol id="bookmark-filled"><g id="00-icons/bookmark-filled" stroke="none" stroke-width="1" fill="none" fill-rule="evenodd"><path d="M20.182 0H3.818C3.366 0 3 .384 3 .857v22.286c0 .33.18.63.464.772.283.143.62.103.866-.103L12 17.383l7.67 6.429a.788.788 0 00.866.103.861.861 0 00.464-.772V.857C21 .384 20.634 0 20.182 0z" id="bookmark-filled" fill="currentColor" fill-rule="nonzero"/></g></symbol><symbol id="bookmark"><g id="00-icons/bookmark" stroke="none" stroke-width="1" fill="none" fill-rule="evenodd"><path d="M19.2 21.373l-5.381-4.648-.642-.555L12 15.153l-1.177 1.017L4.8 21.373V1.8h14.4v19.573zM19.888 0H4.111C3.497 0 3 .513 3 1.145v21.707C3 23.535 3.543 24 4.117 24c.243 0 .492-.084.708-.27L12 17.532l.642.555 6.533 5.643c.215.186.464.27.708.27.574 0 1.117-.465 1.117-1.148V1.145C21 .513 20.503 0 19.888 0z" id="bookmark" fill="currentColor" fill-rule="nonzero"/></g></symbol><symbol id="brand-names"><g stroke="#036" fill="none" fill-rule="evenodd" stroke-width=".92"><g transform="rotate(45 11.31 47.006)"><path fill="#E0EEFF" d="M.621 8.284v33.122h23.966V8.284L12.604.859.62 8.284z"/><circle cx="13.38" cy="9.56" r="2.77" fill="#FFF"/></g><path d="M37.743 19.474a6.462 6.462 0 10.334-5.544"/><path fill="#FFF" d="M32.08 26.813L19.027 39.867l1.313 1.312 13.054-13.054-1.312-1.312zm-9.14 2.607l-7.18 7.18 1.312 1.312 7.18-7.18-1.313-1.312zm3.263 9.79l-3.917 3.917 1.313 1.312 3.916-3.916-1.312-1.312z"/></g></symbol><symbol id="calendar"><g id="00-icons/calendar" stroke="none" stroke-width="1" fill="none" fill-rule="evenodd"><path d="M15.9 2.206L16 2.2a.8.8 0 01.794.7l.006.1v1.725H20a1.8 1.8 0 011.8 1.8v13.046a1.8 1.8 0 01-1.8 1.8H4a1.8 1.8 0 01-1.8-1.8V6.526a1.8 1.8 0 011.8-1.8l3.2-.001V3a.8.8 0 01.7-.794L8 2.2a.8.8 0 01.794.7L8.8 3v1.725h6.4V3a.8.8 0 01.7-.794L16 2.2l-.1.006zM20.2 12.3H3.8v7.27c0 .111.09.2.2.2h16a.2.2 0 00.2-.2V12.3zm-13-5.975H4a.2.2 0 00-.2.2V10.7h16.4V6.526a.2.2 0 00-.2-.2l-3.2-.001V8a.8.8 0 01-.7.794L16 8.8a.8.8 0 01-.794-.7L15.2 8V6.325H8.8V8a.8.8 0 01-.7.794L8 8.8a.8.8 0 01-.794-.7L7.2 8V6.325z" id="calendar" fill="currentColor" fill-rule="nonzero"/></g></symbol><symbol id="check"><g id="00-icons/check" stroke="none" stroke-width="1" fill="none" fill-rule="evenodd"><path d="M14.387 8.708l-8.666 8.685c-.42.42-1.1.42-1.52 0a1.077 1.077 0 010-1.522l8.172-8.184 1.434-1.48c.5-.5 1.5 0 2.08.476l3.92 5.025c.543.777-1 2-2 1l-3.42-4z" id="check" fill="currentColor" fill-rule="nonzero" transform="rotate(-180 11.903 11.854)"/></g></symbol><symbol id="close"><g id="00-icons/close" stroke="none" stroke-width="1" fill="none" fill-rule="evenodd"><path d="M13.373 12l5.335 5.429c.884.848-.442 2.143-1.282 1.294l-5.435-5.49-5.392 5.49c-.884.849-2.165-.446-1.326-1.294L10.647 12 5.273 6.571c-.84-.848.442-2.143 1.326-1.294l5.392 5.49 5.435-5.49c.84-.849 2.166.446 1.282 1.294L13.373 12z" id="close" fill="currentColor" fill-rule="nonzero"/></g></symbol><symbol id="concentration"><g fill="none" fill-rule="evenodd" stroke-width=".92" stroke="#036"><path fill="#E0EEFF" d="M13.385 28.154v17.538a3.692 3.692 0 107.384 0V28.154h-7.384z"/><path stroke-linecap="square" d="M13.385 42h3.699m-3.7-2.77h2.77"/><path fill="#E0EEFF" d="M26.308 11.538v34.154a3.692 3.692 0 007.384 0V11.538h-7.384z"/><path stroke-linecap="square" d="M26.308 22.615h1.846m-1.846 5.539h1.846m-1.846 5.538h1.846m-1.846 5.539h1.846m-1.846-19.385H30m-3.692 5.539H30m-3.692 5.538H30m-3.692 5.539H30M26.308 42H30"/><path fill="#E0EEFF" d="M39.23 19.846v25.846a3.692 3.692 0 007.385 0V19.846h-7.384z"/><path stroke-linecap="square" d="M39.23 42h3.7m-3.7-2.77h1.85m-1.85-8.307h3.693m-3.692-5.538h3.692m-3.692 8.307h1.85m-1.85-5.538h1.85m-1.85 8.308h3.699m-4.622-16.616h9.237m-35.083 8.308h9.244m-8.321 5.538h1.85m-1.85 2.77h3.699m8.3-24.924h9.231m-8.307 5.539h1.846"/></g></symbol><symbol id="dosage-form"><g stroke="#036" fill="none" fill-rule="evenodd" stroke-width=".92"><g transform="rotate(-135 20.757 19.874)"><rect width="12.92" height="36" x=".92" y="1.19" fill="#E0EEFF" rx="6.46"/><path stroke-linecap="square" d="M1.433 19.968H13.05M.955 17.776l12.63-.037"/></g><g transform="rotate(90 11.538 21.694)"><circle cx="6.46" cy="6.46" r="6.46" fill="#E0EEFF"/><path stroke-linecap="square" d="M0 6.462h12.923"/></g><g transform="rotate(-180 8.77 14.77)"><circle cx="4.62" cy="4.62" r="4.62" fill="#E0EEFF"/><path stroke-linecap="square" d="M0 4.615h9.23"/></g><g transform="rotate(-150 29.343 14.99)"><circle cx="3.69" cy="3.69" r="3.69" fill="#E0EEFF" transform="rotate(-150 4.863 4.368)"/><path stroke-linecap="square" d="M2.308 5.538h6.461"/></g><g transform="rotate(105 7.88 40.797)"><rect width="7.38" height="17.54" x=".94" y="1.34" fill="#E0EEFF" rx="3.69"/><path stroke-linecap="square" d="M.93 11.07l6.462.015M.931 9.223l6.461.016"/></g></g></symbol><symbol id="download"><g id="00-icons/download" stroke="none" stroke-width="1" fill="none" fill-rule="evenodd"><path d="M11 14.748V4a1 1 0 012 0v10.759l4.4-4.482c.885-.849 2.166.446 1.327 1.294l-6.099 6.161c-.354.357-.884.357-1.282 0l-6.054-6.16c-.884-.849.442-2.144 1.282-1.295L11 14.748zM6 19h12a1 1 0 010 2H6a1 1 0 010-2z" id="download" fill="currentColor" fill-rule="nonzero"/></g></symbol><symbol id="external-link"><g id="00-icons/external-link" stroke="none" stroke-width="1" fill="none" fill-rule="evenodd"><path d="M15.997 9.508l-8.163 8.177c-.42.42-1.1.42-1.52 0a1.077 1.077 0 010-1.522l8.172-8.184-6.747.062c-1.315-.027-1.305-1.987-.023-1.994L17.026 6c.54-.003.943.4.974.975l-.08 9.292c.026 1.318-1.964 1.294-1.957.01l.034-6.769z" id="external-link" fill="currentColor" fill-rule="nonzero"/></g></symbol><symbol id="indication"><g stroke="#036" fill="none" fill-rule="evenodd" stroke-width=".92"><path fill="#E0EEFF" d="M14.292 17.71l1.335 23.775h32.835V17.709H25.355l-1.213-2.477h-7.24l-1.17 2.477h-1.44z"/><path fill="#E0EEFF" d="M11.539 20.18v23.775h34.454V20.179h-22.31l-1.212-2.478h-8.297l-1.169 2.478H11.54z"/><path stroke-linecap="square" d="M16.44 23.414h4.116"/><path fill="#FFF" d="M30.623 30.663h3.49v3.649h-3.49v3.51h-3.712v-3.51h-3.493v-3.649h3.493V27.12h3.712v3.544z"/><path stroke-linecap="square" d="M16.44 20.945h4.116"/></g></symbol><symbol id="info"><g id="00-icons/info" stroke="none" stroke-width="1" fill="none" fill-rule="evenodd"><path d="M3 12c0-4.961 4.039-9 9-9s9 4.039 9 9-4.039 9-9 9-9-4.039-9-9zm9-7.364A7.351 7.351 0 004.636 12 7.351 7.351 0 0012 19.363 7.35 7.35 0 0019.363 12 7.351 7.351 0 0012 4.636zm-1 3.36c0-.664.333-.996 1-.996s1 .332 1 .997c0 .316-.083.563-.25.739-.167.176-.417.264-.75.264-.667 0-1-.334-1-1.003zM12.6 17h-1.2c-.22 0-.4-.25-.4-.56V10h2v6.44c0 .31-.18.56-.4.56z" id="info" fill="currentColor" fill-rule="nonzero"/></g></symbol><symbol id="invalid"><g id="00-icons/table-close" stroke="none" stroke-width="1" fill="none" fill-rule="evenodd"><rect id="table-close" fill="#DDE0E3" x="4" y="10" width="17" height="4" rx="1"/></g></symbol><symbol id="legal-category"><g stroke="#036" fill="none" fill-rule="evenodd"><path fill="#E0EEFF" stroke-width=".92" d="M14.308 10.616v38.769h31.384V15.898l-5.235-5.282h-26.15z"/><path fill="#E0EEFF" stroke-width=".87" d="M26.077 40.831v15.1l3.894-2.476 3.952 2.481V40.831h-7.846z"/><path stroke-linecap="square" stroke-width=".87" d="M30 53.055v-6.832"/><path fill="#FFF" stroke-width=".96" d="M24.735 34.86v2.192l-1.923 1.095 1.11 1.896-1.11 1.896 1.923 1.095v2.192h2.223l1.114 1.902L30 46.03l1.928 1.098 1.114-1.902h2.223v-2.192l1.923-1.095-1.11-1.896 1.11-1.896-1.923-1.095v-2.193h-2.223l-1.114-1.901L30 34.055l-1.928-1.097-1.114 1.901h-2.223z"/><path stroke-linecap="square" stroke-width=".92" d="M19.32 15.893h5.861m-5.862 2.77h5.862m-5.871 4.615H40.8m-21.491 2.77H40.8m-21.49 2.767H40.8"/><path fill="#FFF" stroke-width=".92" d="M40.154 10.616v5.538h5.538v-.255l-5.251-5.283h-.287z"/></g></symbol><symbol id="locate"><path fill="currentColor" d="M12 1.033a.9.9 0 01.893.787l.007.113v2.104a8.002 8.002 0 017.051 7.063h2.176a.9.9 0 01.113 1.793l-.113.007h-2.179a8.004 8.004 0 01-7.048 7.037v2.17a.9.9 0 01-1.793.113l-.007-.113v-2.17A8.003 8.003 0 014.052 12.9H1.904a.9.9 0 01-.113-1.793l.113-.007h2.145a8.002 8.002 0 017.05-7.063l.001-2.104a.9.9 0 01.9-.9zm0 4.754a6.2 6.2 0 100 12.4 6.2 6.2 0 000-12.4zM12 9a3 3 0 110 6 3 3 0 010-6z"/></symbol><symbol id="location"><g id="00-icons/location" stroke="none" stroke-width="1" fill="none" fill-rule="evenodd"><path d="M12 2.369a7.9 7.9 0 017.9 7.9c0 2.895-2.44 6.648-7.268 11.407l-.632.623-.632-.623C6.54 16.916 4.1 13.164 4.1 10.269a7.9 7.9 0 017.9-7.9zm0 1.8a6.1 6.1 0 00-6.1 6.1c0 2.151 2.019 5.359 6.1 9.494 4.081-4.135 6.1-7.343 6.1-9.494a6.1 6.1 0 00-6.1-6.1zM12 7.1a2.9 2.9 0 110 5.8 2.9 2.9 0 010-5.8zm0 1.8a1.1 1.1 0 100 2.2 1.1 1.1 0 000-2.2z" id="location" fill="currentColor" fill-rule="nonzero"/></g></symbol><symbol id="mail"><path d="M20 5a2 2 0 012 2v10.988a2 2 0 01-2 2H4a2 2 0 01-2-2V7a2 2 0 012-2h16zM9.593 13.803l-5.335 4.476h15.249l-5.213-4.374L12 15.945l-2.407-2.142zm10.796-5.312l-4.924 4.374 4.924 4.132V8.491zm-16.767 0v8.3l4.801-4.029-4.801-4.271zm16.197-1.806H4.268L12 13.75l7.819-7.065z" fill="currentColor"/></symbol><symbol id="menu"><g id="00-icons/menu" stroke="none" stroke-width="1" fill="none" fill-rule="evenodd"><path d="M1 19h22a1 1 0 010 2H1a1 1 0 010-2zm6-8h16a1 1 0 010 2H7a1 1 0 010-2zM1 3h22a1 1 0 010 2H1a1 1 0 110-2z" id="Combined-Shape" fill="currentColor" fill-rule="nonzero"/></g></symbol><symbol id="minus"><g id="01-Core/00-assets/02-icon-set/minus" stroke="none" stroke-width="1" fill="none" fill-rule="evenodd"><path d="M12.919 12.814H3.87c-1.161-.024-1.152-1.72-.02-1.725h16.295c1.131-.006 1.152 1.75-.01 1.725H12.92z" id="minus" fill="currentColor" fill-rule="nonzero"/></g></symbol><symbol id="pack-sizes"><g stroke="#036" stroke-width=".96" fill="none" fill-rule="evenodd"><path fill="#E0EEFF" d="M7.641 35.874l16.921 16.92L53.257 24.1 36.336 7.18z"/><g transform="matrix(1 0 0 -1 14.499 38.53)"><ellipse cx="3.35" cy="3.38" fill="#FFF" rx="3.35" ry="3.38"/><path stroke-linecap="square" d="M0 3.381h6.7"/></g><g transform="matrix(1 0 0 -1 23.38 29.65)"><ellipse cx="3.35" cy="3.38" fill="#FFF" rx="3.35" ry="3.38"/><path stroke-linecap="square" d="M0 3.381h6.7"/></g><g transform="matrix(1 0 0 -1 32.259 20.77)"><ellipse cx="3.35" cy="3.38" fill="#FFF" rx="3.35" ry="3.38"/><path stroke-linecap="square" d="M0 3.381h6.7"/></g><g transform="matrix(1 0 0 -1 21.945 45.976)"><ellipse cx="3.35" cy="3.38" fill="#FFF" rx="3.35" ry="3.38"/><path stroke-linecap="square" d="M0 3.381h6.7"/></g><g transform="matrix(1 0 0 -1 30.824 37.095)"><ellipse cx="3.35" cy="3.38" fill="#FFF" rx="3.35" ry="3.38"/><path stroke-linecap="square" d="M0 3.381h6.7"/></g><g transform="matrix(1 0 0 -1 39.705 28.216)"><ellipse cx="3.35" cy="3.38" fill="#FFF" rx="3.35" ry="3.38"/><path stroke-linecap="square" d="M0 3.381h6.7"/></g><path stroke-linecap="square" d="M16.45 43.994l1.024-1.024m25.957-25.957l1.024-1.025m-18.032 1.094l1.362 1.362m-10.584 7.86l1.363 1.362M42 32.659l1.362 1.362m-10.584 7.86l1.363 1.362m-7.787-9.153l-1.366 1.366m.006-1.36l1.354 1.354m7.868-10.575l1.353 1.353m-1.342-.011l1.401-1.402"/></g></symbol><symbol id="pause"><g id="00-icons/pause" stroke="none" stroke-width="1" fill="none" fill-rule="evenodd"><path d="M7 5a1 1 0 011 1v12a1 1 0 01-2 0V6a1 1 0 011-1zm10 0a1 1 0 011 1v12a1 1 0 01-2 0V6a1 1 0 011-1z" id="pause" fill="currentColor" fill-rule="nonzero"/></g></symbol><symbol id="phone"><path d="M5.897 3.594c-.764 0-1.846 1.008-2.113 1.685-.35.89.191 2.084.724 3.133 2.08 4.088 5.259 7.409 9.075 9.912 1.364.898 3.235 2.13 4.725 1.93.737-.099 2.74-1.76 1.866-2.574-.593-.592-1.36-1.067-2.158-1.54-.85-.505-1.43-.964-2.326-.315-.499.357-1.251.899-2.37.47-1.128-.434-2.018-1.312-2.87-2.139-.898-.87-1.771-1.774-2.432-2.843-.876-1.418-.417-2.317.271-3.343.644-.96-.894-2.847-1.635-3.753-.377-.462-.56-.623-.757-.623m12.08 18.341c-2.089 0-3.912-1.294-5.58-2.404-3.566-2.375-6.545-5.458-8.714-9.16C2.718 8.723 1.47 6.636 2.24 4.673c.38-.971 1.215-1.78 2.48-2.409C7.084 1.088 9.04 4.111 9.8 6.011c.542 1.355.152 2.145-.432 3.355-.48.99.73 2.048 1.36 2.72.83.885 1.806 2.046 2.929 2.543.6.267.89-.073 1.386-.37.566-.339 1.147-.537 1.812-.449 1.223.162 2.32 1.031 3.298 1.716 1.209.844 2.236 1.86 1.702 3.448-.534 1.589-2.172 2.961-3.878 2.961" fill="currentColor"/></symbol><symbol id="play"><g id="00-icons/play" stroke="none" stroke-width="1" fill="none" fill-rule="evenodd"><path d="M5 4.12v15.76c0 .651.54 1.12 1.132 1.12.179 0 .362-.042.537-.136l14.738-7.881c.79-.422.79-1.544 0-1.966L6.67 3.136A1.137 1.137 0 006.132 3C5.54 3 5 3.469 5 4.12zM19.563 12L6.75 19.063V4.964L19.563 12z" id="play" fill="currentColor" fill-rule="nonzero"/></g></symbol><symbol id="plus"><g id="00-icons/plus" stroke="none" stroke-width="1" fill="none" fill-rule="evenodd"><path d="M12.919 12.814v7.322c.023 1.161-1.798 1.14-1.792.009v-7.33H3.87c-1.161-.025-1.152-1.72-.02-1.726h7.277v-7.24c.005-1.131 1.768-1.14 1.792.021v7.219h7.226c1.131-.006 1.152 1.75-.01 1.725H12.92z" id="plus" fill="currentColor" fill-rule="nonzero"/></g></symbol><symbol id="podcast"><g id="00-icons/podcast" stroke="none" stroke-width="1" fill="none" fill-rule="evenodd"><path d="M18.122 19.347h-.204v-4.49h.204a2.248 2.248 0 012.245 2.245 2.248 2.248 0 01-2.245 2.245zm-12.244-4.49h.204v4.49h-.204a2.248 2.248 0 01-2.245-2.245 2.248 2.248 0 012.245-2.245zm16.072-3.876A9.958 9.958 0 0012 2a9.96 9.96 0 00-9.95 8.999L2 17.104a3.881 3.881 0 003.878 3.876h.204v.204a.817.817 0 001.632 0V13.02a.817.817 0 00-1.632 0v.204h-.204c-.658 0-1.297.175-1.904.52l-.309.175c.02-2.018-.063-3.878.894-5.738C5.98 5.42 8.894 3.633 12 3.633c3.102 0 6.018 1.782 7.44 4.537.96 1.86.874 3.729.895 5.75l-.31-.176a3.811 3.811 0 00-1.903-.52h-.204v-.204a.817.817 0 00-1.632 0v8.164a.817.817 0 001.632 0v-.204h.204A3.881 3.881 0 0022 17.102l-.05-6.121z" id="podcast" fill="currentColor" fill-rule="nonzero"/></g></symbol><symbol id="pregnancy"><g fill="none" fill-rule="evenodd" stroke-width=".92" stroke="#036"><path fill="#E0EEFF" d="M35.156 12.943l1.164-1.438 2.868 2.323-1.164 1.437zm16.037 0l-1.164-1.438-2.867 2.322 1.164 1.438zm-5.712 14.935h-4.62v2.4h4.62z"/><path d="M36.468 14.48a8.308 8.308 0 1013.191-.292M34.544 42.747c0-2.464-2.066-4.461-4.615-4.461-2.549 0-4.615 1.997-4.615 4.461m9.23 2.525c0 2.464 2.067 4.461 4.616 4.461 2.549 0 4.615-1.997 4.615-4.461m-27.692 1.984c0 2.464 2.066 4.461 4.615 4.461 2.55 0 4.616-1.997 4.616-4.461"/><path stroke-linecap="square" d="M25.314 43.202v3.616m9.23-3.616v1.622m-18.461-1.608v3.576m27.692-15.815v13.847"/><path fill="#E0EEFF" d="M16.075 42.956l.008-.008.007.008 2.285-2.285a1.385 1.385 0 00-1.958-1.958l-.334.334-.335-.334a1.385 1.385 0 10-1.958 1.958l2.285 2.285zm.008.645l-.319-.319.319-.318.318.318-.318.319z"/><g transform="translate(8.308 17.538)"><circle cx="8.31" cy="8.31" r="8.31" fill="#E0EEFF"/><path d="M5.144 11.47a4.473 4.473 0 006.326 0"/></g><path d="M17.076 17.568c-1.426 0-2.581 1.116-2.581 2.492 0 1.377 1.155 2.493 2.581 2.493"/></g></symbol><symbol id="progress-check"><g id="progress-check" stroke="none" stroke-width="1" fill="currentColor" fill-rule="evenodd"><path d="M10.065 14.25l6.5-6.514a.805.805 0 011.139 0 .808.808 0 010 1.141l-6.129 6.139-1.075 1.109c-.375.375-1.125 0-1.56-.356L6 12c-.407-.583.75-1.5 1.5-.75l2.565 3z"/><path clip-rule="evenodd" d="M12 23c6.075 0 11-4.925 11-11S18.075 1 12 1 1 5.925 1 12s4.925 11 11 11zm0 1c6.627 0 12-5.373 12-12S18.627 0 12 0 0 5.373 0 12s5.373 12 12 12z"/></g></symbol><symbol id="progress-current"><g id="progress-current" stroke="none" stroke-width="1" fill="currentColor" fill-rule="evenodd"><path clip-rule="evenodd" d="M12 23c6.075 0 11-4.925 11-11S18.075 1 12 1 1 5.925 1 12s4.925 11 11 11zm0 1c6.627 0 12-5.373 12-12S18.627 0 12 0 0 5.373 0 12s5.373 12 12 12z"/><circle cx="12" cy="12" r="5"/></g></symbol><symbol id="progress-upcoming"><path clip-rule="evenodd" d="M12 23c6.075 0 11-4.925 11-11S18.075 1 12 1 1 5.925 1 12s4.925 11 11 11zm0 1c6.627 0 12-5.373 12-12S18.627 0 12 0 0 5.373 0 12s5.373 12 12 12z" fill="currentColor" id="progress-upcoming" stroke="none" stroke-width="1" fill-rule="evenodd"/></symbol><symbol id="search"><g id="00-icons/search" stroke="none" stroke-width="1" fill="none" fill-rule="evenodd"><path d="M21.765 20.557l-5.562-5.614A7.97 7.97 0 009.973 2 7.974 7.974 0 002 9.974a7.97 7.97 0 007.974 7.969A7.946 7.946 0 0015 16.16l5.526 5.578a.852.852 0 00.62.266.844.844 0 00.588-.234.862.862 0 00.031-1.214zM9.974 16.23a6.22 6.22 0 01-4.427-1.833 6.218 6.218 0 01-1.833-4.422 6.2 6.2 0 011.833-4.422A6.22 6.22 0 019.974 3.72 6.22 6.22 0 0114.4 5.552a6.218 6.218 0 011.833 4.422 6.2 6.2 0 01-1.833 4.422 6.22 6.22 0 01-4.427 1.833z" id="search" fill="currentColor" fill-rule="nonzero"/></g></symbol><symbol id="share"><g id="00-icons/share" stroke="none" stroke-width="1" fill="none" fill-rule="evenodd"><path d="M14.69 6.948V9.44c-4.613 1.185-9.497 3.305-11.648 7.868 3.414-2.39 7.56-3.152 11.647-3.112v2.539l6.093-4.894-6.093-4.893zM2.26 19.588c-.833 0-1.468-.843-1.197-1.642C3.005 12.18 8.548 9.472 13.09 8.205V6.242c-.008-1.041 1.262-1.61 2.06-.977l6.98 5.606c.62.49.612 1.455-.005 1.945l-6.97 5.598c-.799.64-2.065.073-2.065-.968v-1.642c-1.986.086-6.589.608-10.004 3.486a1.284 1.284 0 01-.825.298z" id="share" fill="currentColor" fill-rule="nonzero"/></g></symbol><symbol id="time"><g id="00-icons/time" stroke="none" stroke-width="1" fill="none" fill-rule="evenodd"><path d="M11.182 7.818V12c0 .452.366.818.818.818h3.637a.817.817 0 000-1.636h-2.819V7.818a.818.818 0 10-1.636 0zM12 4.636A7.351 7.351 0 0119.363 12 7.35 7.35 0 0112 19.363 7.351 7.351 0 014.636 12 7.351 7.351 0 0112 4.636M3 12c0 4.961 4.039 9 9 9s9-4.039 9-9-4.039-9-9-9-9 4.039-9 9z" id="time" fill="currentColor" fill-rule="nonzero"/></g></symbol><symbol id="user"><g id="00-icons/user" stroke="none" stroke-width="1" fill="none" fill-rule="evenodd"><path d="M3.667 20.794h16.666c0-3.452-3.73-6.25-8.333-6.25-4.602 0-8.333 2.798-8.333 6.25zM7.833 7.835a4.167 4.167 0 108.333 0 4.167 4.167 0 00-8.333 0zm10 0a5.834 5.834 0 01-3.393 5.29c4.336.866 7.56 3.97 7.56 7.669v.824a.842.842 0 01-.842.842H2.842A.842.842 0 012 21.618v-.824c0-3.7 3.225-6.804 7.563-7.669-2-.927-3.394-2.947-3.396-5.29A5.84 5.84 0 0112 2a5.84 5.84 0 015.833 5.834z" id="user" fill="currentColor" fill-rule="nonzero"/></g></symbol><symbol id="valid"><g id="00-icons/table-check" stroke="none" stroke-width="1" fill="none" fill-rule="evenodd"><path d="M12 0c3.72 0 7.044 1.692 9.245 4.349l-9.713 9.722-3.42-4c-1-1-2.542.223-2 1l3.92 5.025c.58.475 1.58.975 2.08.475l1.434-1.479 8.935-8.94A11.946 11.946 0 0124 12c0 6.627-5.373 12-12 12S0 18.627 0 12 5.373 0 12 0z" id="table-check" fill="currentColor" fill-rule="nonzero"/></g></symbol><symbol id="wechat"><g id="00-icons/wechat" stroke="none" stroke-width="1" fill="none" fill-rule="evenodd"><path d="M16.373 9.096c3.66 0 6.627 2.466 6.627 5.514 0 1.654-.893 3.148-2.28 4.135-.122.102-.179.22-.179.33 0 .109.007.142.02.2.092.408.27 1.055.286 1.107.015.053.035.102.033.165a.213.213 0 01-.213.212c-.054 0-.093-.018-.159-.053l-1.43-.848c-.102-.053-.218-.119-.35-.092-.134.026-.13.025-.181.039-.687.2-1.417.307-2.174.318-3.66-.011-6.626-2.477-6.626-5.513 0-3.048 2.967-5.514 6.626-5.514zM8.952 3c3.96 0 7.247 2.415 7.846 5.566-.144 0-.287-.005-.425 0-4.01-.005-7.256 2.694-7.262 6.044.006.54.1 1.083.265 1.59a1.775 1.775 0 01-.424 0 9.69 9.69 0 01-2.598-.318 1.65 1.65 0 00-.317-.049.674.674 0 00-.319.102l-1.75 1.007a.34.34 0 01-.158.053.26.26 0 01-.265-.265c-.005-.065.03-.124.053-.212.022-.088.177-.748.318-1.325a.889.889 0 00.031-.212.418.418 0 00-.19-.371C2.07 13.394 1 11.6 1 9.627 1 5.959 4.558 3 8.952 3zm5.17 8.959a.838.838 0 00-.823.823c0 .494.38.873.822.873a.86.86 0 00.874-.873c0-.443-.38-.823-.874-.823zm4.4 0a.838.838 0 00-.823.823c0 .494.38.873.822.873a.86.86 0 00.874-.873c0-.443-.38-.823-.874-.823zM6.247 6.446a1.06 1.06 0 100 2.12 1.06 1.06 0 000-2.12zm5.301 0a1.06 1.06 0 100 2.12 1.06 1.06 0 000-2.12z" id="wechat" fill="currentColor" fill-rule="nonzero"/></g></symbol><symbol id="world"><g id="00-icons/world" stroke="none" stroke-width="1" fill="none" fill-rule="evenodd"><path d="M14.244 12.785a11.563 11.563 0 01-.392 2.062c-.48 1.754-1.276 3.187-1.852 4.073-.577-.885-1.372-2.314-1.853-4.058a11.917 11.917 0 01-.393-2.077h4.49zm-6.01-.02c.07.848.22 1.699.448 2.535a15.97 15.97 0 001.745 4c-3.128-.676-5.53-3.33-5.847-6.535h3.654zm-3.672-1.531c.333-3.17 2.698-5.809 5.774-6.52-1.343 2.037-2.067 4.225-2.156 6.52H4.562zm14.857 1.531c-.318 3.205-2.719 5.86-5.846 6.536a15.98 15.98 0 001.744-4.001c.228-.813.378-1.663.449-2.535h3.653zm-3.6-1.531c-.088-2.295-.812-4.483-2.155-6.52 3.08.711 5.44 3.35 5.755 6.52h-3.6zm-6.107 0c.095-2.189.864-4.279 2.29-6.224 1.44 1.945 2.208 4.035 2.289 6.224H9.712zM12 3c-4.963 0-9 4.037-9 9 0 4.962 4.037 8.999 9 8.999s9-4.037 9-9C21 7.038 16.963 3 12 3z" id="world" fill="currentColor" fill-rule="nonzero"/></g></symbol><symbol id="zoom"><g id="01-Core/00-assets/02-icon-set/zoom" stroke="none" stroke-width="1" fill="none" fill-rule="evenodd"><path d="M9.974 2a7.97 7.97 0 016.229 12.943l5.562 5.614a.862.862 0 01-.03 1.214.844.844 0 01-.59.234.852.852 0 01-.62-.266L15 16.161a7.946 7.946 0 01-5.026 1.782A7.97 7.97 0 012 9.973 7.974 7.974 0 019.974 2zm0 1.719a6.22 6.22 0 00-4.427 1.833 6.2 6.2 0 00-1.833 4.422c0 1.667.65 3.24 1.833 4.422a6.22 6.22 0 004.427 1.833 6.22 6.22 0 004.427-1.833 6.2 6.2 0 001.833-4.422c0-1.667-.65-3.24-1.833-4.422a6.22 6.22 0 00-4.427-1.833zM10 5.135c.441 0 .805.33.858.756l.007.109v3.135H14a.865.865 0 01.109 1.723l-.109.007-3.135-.001V14a.865.865 0 01-1.723.109L9.135 14l-.001-3.136L6 10.865a.865.865 0 01-.109-1.723L6 9.135h3.134L9.135 6c0-.478.387-.865.865-.865z" id="Combined-Shape" fill="currentColor" fill-rule="nonzero"/></g></symbol></svg>