<svg width="160" height="48" xmlns="http://www.w3.org/2000/svg"><path d="M10.236 41.64c-3.28-2.385-4.969-4.075-6.559-6.56A22.984 22.984 0 010 22.659C0 10.137 10.137 0 22.658 0 35.18 0 45.317 10.137 45.317 22.658c0 5.168-1.789 10.336-4.87 14.112-1.292 1.59-2.385 2.584-5.366 4.77V28.323h2.285v9.043c1.69-1.987 2.485-3.18 3.28-4.571 1.69-2.981 2.584-6.658 2.584-10.137 0-11.428-9.242-20.77-20.572-20.77-11.428 0-20.571 9.342-20.571 20.87 0 5.366 1.888 10.037 5.863 14.608v-9.043h2.286V41.64zm4.472 2.285c-.397-.099-1.391-.596-2.286-.993V28.323h2.286v15.602zm13.615-32l-5.665-4.372-5.664 4.372-1.193-1.59 6.957-5.366 6.956 5.366-1.391 1.59zM19.18 45.118c-.795-.1-.894-.1-1.192-.199-.2 0-.299 0-1.094-.199V13.615h2.286v31.503zm4.572.1h-2.187V13.614h2.286v31.602h-.1zm4.571-.696c-.696.198-1.292.397-2.286.596V13.615h2.286v30.907zm4.571-1.69c-.695.298-1.192.497-2.285 1.093V28.323h2.285v14.51zM61.913 9.938c2.385.596 3.776 2.186 3.776 4.472 0 1.292-.496 2.484-1.39 3.28-.895.794-1.988 1.093-3.877 1.093h-6.559v-.994l1.59-.298V3.578l-1.59-.298v-.994h2.882c1.193 0 2.385-.1 3.578-.1 2.683 0 4.472 1.59 4.472 3.975 0 1.59-.894 2.783-2.882 3.777zm-4.074-6.46V9.54h1.192c2.186 0 2.981-.993 2.981-3.379 0-1.888-.894-2.98-2.683-2.98-.497 0-.795.099-1.49.297zm1.49 14.31c2.286 0 3.578-1.39 3.677-3.577 0-2.385-1.292-3.478-4.074-3.478h-1.093v6.658c.496.298.795.398 1.49.398zm13.218-11.03c2.782 0 4.67 2.385 4.571 5.863 0 3.777-1.888 6.261-4.77 6.261-2.683 0-4.572-2.385-4.572-5.863 0-3.677 1.889-6.261 4.77-6.261zm-.1 11.03c1.292 0 2.187-2.086 2.286-5.266 0-2.783-.894-4.572-2.186-4.572-1.392 0-2.187 1.79-2.187 5.069 0 3.08.795 4.77 2.087 4.77zm11.826-.496c.895 0 1.491-.497 2.286-1.49l1.093.397c-1.192 2.087-2.087 2.782-3.975 2.782-2.882 0-4.472-2.186-4.472-5.863 0-3.876 1.69-6.26 4.472-6.26 1.888 0 3.18 1.092 3.677 3.08.199.596.298 1.292.298 2.782H81.59c.199 3.28.994 4.572 2.683 4.572zm-.795-9.342c-1.093 0-1.69 1.093-1.888 3.578h3.578c-.1-2.584-.597-3.578-1.69-3.578zm11.727 10.733v-.994l1.193-.198v-6.46c0-1.69-.299-2.385-1.292-2.385-.795 0-1.292.199-2.286 1.093v7.652l1.192.2v.993h-4.77v-.994l1.392-.298V2.882l-1.292-.298v-.795l2.981-.596h.596v7.155c1.392-1.093 2.087-1.391 3.18-1.391 1.889 0 2.783 1.093 2.783 3.478v6.956l1.193.2v.993l-4.87.1zm13.913-10.236c0 .497-.1.696-.894 1.392l-1.193-.696c-.994.596-1.49 1.292-1.49 2.186v6.062l1.689.2v.993h-5.267v-.994l1.292-.298V8.646l-1.292-.199v-.795l2.882-.795h.695v2.186c.994-1.59 1.491-2.086 2.385-2.086.497.099 1.193.695 1.193 1.49zm1.391 10.236v-.894l1.193-.298V8.845l-1.193-.298v-.795l2.982-.696h.596V17.49l1.292.198v.994h-4.87zm3.777-16c0 .795-.696 1.49-1.491 1.49a1.57 1.57 0 01-1.59-1.59c0-.894.696-1.49 1.59-1.49.795.1 1.49.795 1.49 1.59zm9.043 16v-.994l1.193-.198v-6.857c0-1.491-.398-2.087-1.292-2.087-.696 0-1.292.298-2.286 1.093v7.751l1.193.298v.994h-4.87v-.994l1.391-.298V8.745l-1.39-.198v-.994l2.98-.795h.696v1.391c1.391-1.093 2.087-1.391 3.08-1.391 1.889 0 2.883 1.093 2.883 3.379v7.155l1.192.298v.994c0 .1-4.77.1-4.77.1zm16.199-10.236v.1h-2.087c.696.993.894 1.49.894 2.385 0 2.087-1.689 3.776-3.975 3.776-.497 0-.894-.1-1.292-.199-.596.398-.894.795-.894.994 0 .298.298.497.795.497l3.08.1c2.187.099 3.28.894 3.28 2.683 0 2.583-2.186 4.174-5.664 4.174-2.584 0-4.274-.895-4.274-2.386 0-.993.597-1.689 1.889-2.484-.895-.298-1.292-.795-1.292-1.49 0-.796.695-1.491 2.186-2.485-1.49-.895-1.988-1.789-1.988-3.28 0-2.285 1.69-3.975 3.975-3.975.696 0 1.392.199 2.087.298.398.1.795 0 1.193 0h2.087v1.292zm-6.957 9.839c-.596.596-.894.994-.894 1.69 0 1.092.894 1.689 2.484 1.689 2.087 0 3.479-.795 3.479-1.988 0-.994-.298-1.093-5.069-1.391zm1.69-4.77c1.093 0 1.69-.796 1.59-2.684 0-2.087-.497-3.08-1.69-3.08-.993 0-1.49.894-1.49 2.882 0 1.987.497 2.882 1.59 2.882zm11.925 3.776c.895 0 1.491-.497 2.286-1.49l1.093.397c-1.192 2.087-2.087 2.782-3.975 2.782-2.882 0-4.472-2.186-4.472-5.863 0-3.876 1.69-6.26 4.472-6.26 1.888 0 3.18 1.092 3.677 3.08.199.596.298 1.292.298 2.782h-6.062c.199 3.28.994 4.572 2.683 4.572zm-.795-9.342c-1.093 0-1.69 1.093-1.888 3.578h3.578c-.1-2.584-.597-3.578-1.69-3.578zm9.938 1.193c.994-1.59 1.49-2.087 2.385-2.087.795 0 1.392.596 1.392 1.391 0 .497-.1.696-.895 1.392l-1.192-.696c-.994.596-1.491 1.292-1.491 2.186v6.062l1.69.2v.993h-5.268v-.994l1.292-.298V8.646l-1.292-.199v-.795l2.882-.795h.696l-.199 2.286zM53.963 43.03v-.894l1.49-.298V27.925l-1.49-.298v-.993h5.466v.993l-1.392.298V41.74l1.292.298v.994h-5.366zm13.217 0v-.994l1.193-.198V34.98c0-1.49-.398-2.087-1.292-2.087-.696 0-1.292.299-2.286 1.094v7.751l1.193.298v.994h-4.87v-.994l1.391-.298v-8.646l-1.391-.199V31.9l2.981-.795h.696v1.39c1.391-1.092 2.087-1.39 3.08-1.39 1.889 0 2.883 1.093 2.883 3.378v7.255l1.192.298v.994h-4.77zm14.31-10.137c.696.994.895 1.491.895 2.386 0 2.186-1.69 3.776-3.975 3.776-.497 0-.894 0-1.292-.199-.596.398-.894.795-.894 1.093 0 .2.298.398.795.497l3.08.1c2.286.099 3.28.993 3.28 2.683 0 2.484-2.286 4.174-5.665 4.174-2.584 0-4.273-.994-4.273-2.385 0-.994.497-1.59 1.888-2.485-.994-.397-1.292-.795-1.292-1.49 0-.796.597-1.59 2.187-2.485-1.392-.894-1.988-1.789-1.988-3.28 0-2.285 1.69-3.975 3.975-3.975.696 0 1.391.2 2.087.298.398.1.795 0 1.193 0h2.087v1.392l-2.087-.1zm-5.863 11.528c0 1.094.994 1.69 2.485 1.69 1.987 0 3.478-.795 3.478-1.988 0-1.093-.298-1.192-5.068-1.49-.597.596-.895 1.093-.895 1.788zm.994-9.341c0 1.987.497 2.882 1.59 2.882s1.59-.895 1.59-2.683c0-2.087-.596-3.081-1.69-3.081-.993 0-1.49.894-1.49 2.882zm13.416 6.559c.895 0 1.491-.398 2.286-1.49l1.093.397c-1.192 2.087-2.087 2.782-3.975 2.782-2.882 0-4.472-2.186-4.472-5.863 0-3.876 1.69-6.261 4.472-6.261 1.888 0 3.18 1.093 3.677 3.08.199.597.298 1.293.298 2.783h-6.062c.199 3.28.994 4.572 2.683 4.572zm-.795-9.342c-1.093 0-1.69 1.093-1.888 3.578h3.578c-.1-2.584-.597-3.578-1.69-3.578zm5.764 10.733v-.894l1.392-.298V27.13l-1.292-.099v-.894l2.981-.597h.596v16.2l1.292.297v.994h-4.969zm12.82 0v-.994l1.193-.198v-6.46c0-1.69-.299-2.385-1.292-2.385-.795 0-1.292.199-2.286 1.093v7.652l1.193.199v.994h-4.77v-.994l1.39-.298V27.33l-1.291-.299v-.795l2.981-.596h.596v7.155c1.392-1.093 2.087-1.391 3.18-1.391 1.889 0 2.783 1.093 2.783 3.478v6.957l1.193.198v.994h-4.87zm11.727-1.391c.894 0 1.59-.398 2.286-1.49l1.093.397c-1.193 2.087-2.087 2.782-3.975 2.782-2.882 0-4.473-2.186-4.473-5.863 0-3.876 1.69-6.261 4.473-6.261 1.888 0 3.18 1.093 3.677 3.08.198.597.298 1.293.298 2.783h-6.062c.198 3.28.993 4.572 2.683 4.572zm-.795-9.342c-1.093 0-1.69 1.093-1.888 3.578h3.577c-.1-2.584-.596-3.578-1.69-3.578zm6.26 10.733v-.894l1.193-.298v-8.547l-1.192-.298v-.795l2.981-.795h.596v10.435l1.292.198v.994h-4.87zm3.777-15.9c0 .794-.696 1.49-1.49 1.49a1.57 1.57 0 01-1.59-1.59c0-.894.695-1.49 1.59-1.49.794 0 1.49.695 1.49 1.59zm15.106 15.9v-.994l1.192-.298v-6.857c0-1.292-.497-1.988-1.391-1.988-.696 0-1.193.2-2.186 1.193v7.652l1.192.298v.994h-4.77v-.994l1.292-.298v-6.857c0-1.292-.497-1.988-1.49-1.988-.796 0-1.293.299-2.187 1.094v7.751l1.093.298v.994h-4.77v-.994l1.391-.298v-8.745l-1.391-.199V32l2.981-.795h.596v1.59c1.193-.994 2.087-1.391 3.18-1.391 1.193 0 2.087.497 2.684 1.49 1.192-1.192 2.087-1.59 3.28-1.59 1.987 0 2.98 1.094 2.98 3.081v7.354l1.293.298v.994h-4.97z" fill="#fff"/></svg>